<mxfile host="app.diagrams.net" modified="2023-05-21T18:18:51.327Z" agent="Mozilla/5.0 (Macintosh; Intel Mac OS X 10_15_7) AppleWebKit/537.36 (KHTML, like Gecko) Chrome/113.0.0.0 Safari/537.36" etag="Ra4-g4WHfkBjmHxE7Hwu" version="21.3.2" type="device">
  <diagram id="C5RBs43oDa-KdzZeNtuy" name="Page-1">
    <mxGraphModel dx="1853" dy="693" grid="1" gridSize="10" guides="1" tooltips="1" connect="1" arrows="1" fold="1" page="1" pageScale="1" pageWidth="827" pageHeight="1169" math="0" shadow="0">
      <root>
        <mxCell id="WIyWlLk6GJQsqaUBKTNV-0" />
        <mxCell id="WIyWlLk6GJQsqaUBKTNV-1" parent="WIyWlLk6GJQsqaUBKTNV-0" />
        <mxCell id="LLzRUw8gEmpdKAAqa6rB-28" value="ListPasswords" style="swimlane;fontStyle=0;align=center;verticalAlign=top;childLayout=stackLayout;horizontal=1;startSize=26;horizontalStack=0;resizeParent=1;resizeLast=0;collapsible=1;marginBottom=0;rounded=0;shadow=0;strokeWidth=1;" vertex="1" parent="WIyWlLk6GJQsqaUBKTNV-1">
          <mxGeometry x="50" y="60" width="160" height="290" as="geometry">
            <mxRectangle x="550" y="140" width="160" height="26" as="alternateBounds" />
          </mxGeometry>
        </mxCell>
        <mxCell id="LLzRUw8gEmpdKAAqa6rB-29" value="+ master&#xa;" style="text;align=left;verticalAlign=top;spacingLeft=4;spacingRight=4;overflow=hidden;rotatable=0;points=[[0,0.5],[1,0.5]];portConstraint=eastwest;" vertex="1" parent="LLzRUw8gEmpdKAAqa6rB-28">
          <mxGeometry y="26" width="160" height="26" as="geometry" />
        </mxCell>
        <mxCell id="LLzRUw8gEmpdKAAqa6rB-30" value="+ username" style="text;align=left;verticalAlign=top;spacingLeft=4;spacingRight=4;overflow=hidden;rotatable=0;points=[[0,0.5],[1,0.5]];portConstraint=eastwest;rounded=0;shadow=0;html=0;" vertex="1" parent="LLzRUw8gEmpdKAAqa6rB-28">
          <mxGeometry y="52" width="160" height="26" as="geometry" />
        </mxCell>
        <mxCell id="LLzRUw8gEmpdKAAqa6rB-31" value="+ objects&#xa;+ left frame&#xa;+ right frame" style="text;align=left;verticalAlign=top;spacingLeft=4;spacingRight=4;overflow=hidden;rotatable=0;points=[[0,0.5],[1,0.5]];portConstraint=eastwest;rounded=0;shadow=0;html=0;" vertex="1" parent="LLzRUw8gEmpdKAAqa6rB-28">
          <mxGeometry y="78" width="160" height="62" as="geometry" />
        </mxCell>
        <mxCell id="LLzRUw8gEmpdKAAqa6rB-32" value="" style="line;html=1;strokeWidth=1;align=left;verticalAlign=middle;spacingTop=-1;spacingLeft=3;spacingRight=3;rotatable=0;labelPosition=right;points=[];portConstraint=eastwest;" vertex="1" parent="LLzRUw8gEmpdKAAqa6rB-28">
          <mxGeometry y="140" width="160" height="8" as="geometry" />
        </mxCell>
        <mxCell id="LLzRUw8gEmpdKAAqa6rB-33" value="create_buttons_labels()&#xa;create_widgets()&#xa;__init__()&#xa;get_passwords()&#xa;handle_newPass()&#xa;handle_logout()&#xa;handle_button_clieck()&#xa;create_object_list()&#xa;update_object_list()" style="text;align=left;verticalAlign=top;spacingLeft=4;spacingRight=4;overflow=hidden;rotatable=0;points=[[0,0.5],[1,0.5]];portConstraint=eastwest;" vertex="1" parent="LLzRUw8gEmpdKAAqa6rB-28">
          <mxGeometry y="148" width="160" height="142" as="geometry" />
        </mxCell>
        <mxCell id="LLzRUw8gEmpdKAAqa6rB-34" value="SignUpScreen" style="swimlane;fontStyle=0;align=center;verticalAlign=top;childLayout=stackLayout;horizontal=1;startSize=26;horizontalStack=0;resizeParent=1;resizeLast=0;collapsible=1;marginBottom=0;rounded=0;shadow=0;strokeWidth=1;" vertex="1" parent="WIyWlLk6GJQsqaUBKTNV-1">
          <mxGeometry x="230" y="60" width="160" height="150" as="geometry">
            <mxRectangle x="550" y="140" width="160" height="26" as="alternateBounds" />
          </mxGeometry>
        </mxCell>
        <mxCell id="LLzRUw8gEmpdKAAqa6rB-35" value="+ master&#xa;" style="text;align=left;verticalAlign=top;spacingLeft=4;spacingRight=4;overflow=hidden;rotatable=0;points=[[0,0.5],[1,0.5]];portConstraint=eastwest;" vertex="1" parent="LLzRUw8gEmpdKAAqa6rB-34">
          <mxGeometry y="26" width="160" height="26" as="geometry" />
        </mxCell>
        <mxCell id="LLzRUw8gEmpdKAAqa6rB-36" value="+ username" style="text;align=left;verticalAlign=top;spacingLeft=4;spacingRight=4;overflow=hidden;rotatable=0;points=[[0,0.5],[1,0.5]];portConstraint=eastwest;rounded=0;shadow=0;html=0;" vertex="1" parent="LLzRUw8gEmpdKAAqa6rB-34">
          <mxGeometry y="52" width="160" height="26" as="geometry" />
        </mxCell>
        <mxCell id="LLzRUw8gEmpdKAAqa6rB-38" value="" style="line;html=1;strokeWidth=1;align=left;verticalAlign=middle;spacingTop=-1;spacingLeft=3;spacingRight=3;rotatable=0;labelPosition=right;points=[];portConstraint=eastwest;" vertex="1" parent="LLzRUw8gEmpdKAAqa6rB-34">
          <mxGeometry y="78" width="160" height="8" as="geometry" />
        </mxCell>
        <mxCell id="LLzRUw8gEmpdKAAqa6rB-39" value="handle_register()&#xa;create_widgets()&#xa;__init__()" style="text;align=left;verticalAlign=top;spacingLeft=4;spacingRight=4;overflow=hidden;rotatable=0;points=[[0,0.5],[1,0.5]];portConstraint=eastwest;" vertex="1" parent="LLzRUw8gEmpdKAAqa6rB-34">
          <mxGeometry y="86" width="160" height="64" as="geometry" />
        </mxCell>
        <mxCell id="LLzRUw8gEmpdKAAqa6rB-46" value="LoginScreen" style="swimlane;fontStyle=0;align=center;verticalAlign=top;childLayout=stackLayout;horizontal=1;startSize=26;horizontalStack=0;resizeParent=1;resizeLast=0;collapsible=1;marginBottom=0;rounded=0;shadow=0;strokeWidth=1;" vertex="1" parent="WIyWlLk6GJQsqaUBKTNV-1">
          <mxGeometry x="230" y="220" width="160" height="160" as="geometry">
            <mxRectangle x="550" y="140" width="160" height="26" as="alternateBounds" />
          </mxGeometry>
        </mxCell>
        <mxCell id="LLzRUw8gEmpdKAAqa6rB-47" value="+ master&#xa;" style="text;align=left;verticalAlign=top;spacingLeft=4;spacingRight=4;overflow=hidden;rotatable=0;points=[[0,0.5],[1,0.5]];portConstraint=eastwest;" vertex="1" parent="LLzRUw8gEmpdKAAqa6rB-46">
          <mxGeometry y="26" width="160" height="26" as="geometry" />
        </mxCell>
        <mxCell id="LLzRUw8gEmpdKAAqa6rB-48" value="+ username" style="text;align=left;verticalAlign=top;spacingLeft=4;spacingRight=4;overflow=hidden;rotatable=0;points=[[0,0.5],[1,0.5]];portConstraint=eastwest;rounded=0;shadow=0;html=0;" vertex="1" parent="LLzRUw8gEmpdKAAqa6rB-46">
          <mxGeometry y="52" width="160" height="26" as="geometry" />
        </mxCell>
        <mxCell id="LLzRUw8gEmpdKAAqa6rB-49" value="" style="line;html=1;strokeWidth=1;align=left;verticalAlign=middle;spacingTop=-1;spacingLeft=3;spacingRight=3;rotatable=0;labelPosition=right;points=[];portConstraint=eastwest;" vertex="1" parent="LLzRUw8gEmpdKAAqa6rB-46">
          <mxGeometry y="78" width="160" height="8" as="geometry" />
        </mxCell>
        <mxCell id="LLzRUw8gEmpdKAAqa6rB-50" value="handle_login()&#xa;create_widgets()&#xa;__init__()&#xa;go_to_signup()" style="text;align=left;verticalAlign=top;spacingLeft=4;spacingRight=4;overflow=hidden;rotatable=0;points=[[0,0.5],[1,0.5]];portConstraint=eastwest;" vertex="1" parent="LLzRUw8gEmpdKAAqa6rB-46">
          <mxGeometry y="86" width="160" height="74" as="geometry" />
        </mxCell>
        <mxCell id="LLzRUw8gEmpdKAAqa6rB-51" value="NewPass" style="swimlane;fontStyle=0;align=center;verticalAlign=top;childLayout=stackLayout;horizontal=1;startSize=26;horizontalStack=0;resizeParent=1;resizeLast=0;collapsible=1;marginBottom=0;rounded=0;shadow=0;strokeWidth=1;" vertex="1" parent="WIyWlLk6GJQsqaUBKTNV-1">
          <mxGeometry x="410" y="60" width="160" height="150" as="geometry">
            <mxRectangle x="550" y="140" width="160" height="26" as="alternateBounds" />
          </mxGeometry>
        </mxCell>
        <mxCell id="LLzRUw8gEmpdKAAqa6rB-52" value="+ master&#xa;" style="text;align=left;verticalAlign=top;spacingLeft=4;spacingRight=4;overflow=hidden;rotatable=0;points=[[0,0.5],[1,0.5]];portConstraint=eastwest;" vertex="1" parent="LLzRUw8gEmpdKAAqa6rB-51">
          <mxGeometry y="26" width="160" height="26" as="geometry" />
        </mxCell>
        <mxCell id="LLzRUw8gEmpdKAAqa6rB-53" value="+ username" style="text;align=left;verticalAlign=top;spacingLeft=4;spacingRight=4;overflow=hidden;rotatable=0;points=[[0,0.5],[1,0.5]];portConstraint=eastwest;rounded=0;shadow=0;html=0;" vertex="1" parent="LLzRUw8gEmpdKAAqa6rB-51">
          <mxGeometry y="52" width="160" height="26" as="geometry" />
        </mxCell>
        <mxCell id="LLzRUw8gEmpdKAAqa6rB-54" value="" style="line;html=1;strokeWidth=1;align=left;verticalAlign=middle;spacingTop=-1;spacingLeft=3;spacingRight=3;rotatable=0;labelPosition=right;points=[];portConstraint=eastwest;" vertex="1" parent="LLzRUw8gEmpdKAAqa6rB-51">
          <mxGeometry y="78" width="160" height="8" as="geometry" />
        </mxCell>
        <mxCell id="LLzRUw8gEmpdKAAqa6rB-55" value="handle_newPass()&#xa;create_widgets()&#xa;__init__()" style="text;align=left;verticalAlign=top;spacingLeft=4;spacingRight=4;overflow=hidden;rotatable=0;points=[[0,0.5],[1,0.5]];portConstraint=eastwest;" vertex="1" parent="LLzRUw8gEmpdKAAqa6rB-51">
          <mxGeometry y="86" width="160" height="64" as="geometry" />
        </mxCell>
        <mxCell id="LLzRUw8gEmpdKAAqa6rB-56" value="User" style="swimlane;fontStyle=0;align=center;verticalAlign=top;childLayout=stackLayout;horizontal=1;startSize=26;horizontalStack=0;resizeParent=1;resizeLast=0;collapsible=1;marginBottom=0;rounded=0;shadow=0;strokeWidth=1;" vertex="1" parent="WIyWlLk6GJQsqaUBKTNV-1">
          <mxGeometry x="410" y="225" width="160" height="95" as="geometry">
            <mxRectangle x="550" y="140" width="160" height="26" as="alternateBounds" />
          </mxGeometry>
        </mxCell>
        <mxCell id="LLzRUw8gEmpdKAAqa6rB-57" value="+ password&#xa;+ mail&#xa;" style="text;align=left;verticalAlign=top;spacingLeft=4;spacingRight=4;overflow=hidden;rotatable=0;points=[[0,0.5],[1,0.5]];portConstraint=eastwest;" vertex="1" parent="LLzRUw8gEmpdKAAqa6rB-56">
          <mxGeometry y="26" width="160" height="34" as="geometry" />
        </mxCell>
        <mxCell id="LLzRUw8gEmpdKAAqa6rB-58" value="+ username" style="text;align=left;verticalAlign=top;spacingLeft=4;spacingRight=4;overflow=hidden;rotatable=0;points=[[0,0.5],[1,0.5]];portConstraint=eastwest;rounded=0;shadow=0;html=0;" vertex="1" parent="LLzRUw8gEmpdKAAqa6rB-56">
          <mxGeometry y="60" width="160" height="26" as="geometry" />
        </mxCell>
        <mxCell id="LLzRUw8gEmpdKAAqa6rB-59" value="" style="line;html=1;strokeWidth=1;align=left;verticalAlign=middle;spacingTop=-1;spacingLeft=3;spacingRight=3;rotatable=0;labelPosition=right;points=[];portConstraint=eastwest;" vertex="1" parent="LLzRUw8gEmpdKAAqa6rB-56">
          <mxGeometry y="86" width="160" height="8" as="geometry" />
        </mxCell>
        <mxCell id="LLzRUw8gEmpdKAAqa6rB-61" value="server" style="swimlane;fontStyle=0;align=center;verticalAlign=top;childLayout=stackLayout;horizontal=1;startSize=26;horizontalStack=0;resizeParent=1;resizeLast=0;collapsible=1;marginBottom=0;rounded=0;shadow=0;strokeWidth=1;" vertex="1" parent="WIyWlLk6GJQsqaUBKTNV-1">
          <mxGeometry x="-800" y="440" width="160" height="280" as="geometry">
            <mxRectangle x="550" y="140" width="160" height="26" as="alternateBounds" />
          </mxGeometry>
        </mxCell>
        <mxCell id="LLzRUw8gEmpdKAAqa6rB-64" value="+ server_socket&#xa;+ loggedClient&#xa;+ host&#xa;+ port&#xa;+ DBhandler" style="text;align=left;verticalAlign=top;spacingLeft=4;spacingRight=4;overflow=hidden;rotatable=0;points=[[0,0.5],[1,0.5]];portConstraint=eastwest;rounded=0;shadow=0;html=0;" vertex="1" parent="LLzRUw8gEmpdKAAqa6rB-61">
          <mxGeometry y="26" width="160" height="104" as="geometry" />
        </mxCell>
        <mxCell id="LLzRUw8gEmpdKAAqa6rB-65" value="" style="line;html=1;strokeWidth=1;align=left;verticalAlign=middle;spacingTop=-1;spacingLeft=3;spacingRight=3;rotatable=0;labelPosition=right;points=[];portConstraint=eastwest;" vertex="1" parent="LLzRUw8gEmpdKAAqa6rB-61">
          <mxGeometry y="130" width="160" height="8" as="geometry" />
        </mxCell>
        <mxCell id="LLzRUw8gEmpdKAAqa6rB-66" value="+ start()&#xa;+ handle_client()&#xa;+ action_handler()&#xa;+ userView_handler()&#xa;+ login_handler()&#xa;+ handle_info()&#xa;+ newPass_handler()&#xa;" style="text;align=left;verticalAlign=top;spacingLeft=4;spacingRight=4;overflow=hidden;rotatable=0;points=[[0,0.5],[1,0.5]];portConstraint=eastwest;" vertex="1" parent="LLzRUw8gEmpdKAAqa6rB-61">
          <mxGeometry y="138" width="160" height="142" as="geometry" />
        </mxCell>
        <mxCell id="LLzRUw8gEmpdKAAqa6rB-67" value="DBhandler" style="swimlane;fontStyle=0;align=center;verticalAlign=top;childLayout=stackLayout;horizontal=1;startSize=26;horizontalStack=0;resizeParent=1;resizeLast=0;collapsible=1;marginBottom=0;rounded=0;shadow=0;strokeWidth=1;" vertex="1" parent="WIyWlLk6GJQsqaUBKTNV-1">
          <mxGeometry x="-620" y="440" width="160" height="170" as="geometry">
            <mxRectangle x="550" y="140" width="160" height="26" as="alternateBounds" />
          </mxGeometry>
        </mxCell>
        <mxCell id="LLzRUw8gEmpdKAAqa6rB-68" value="+ DBhandler" style="text;align=left;verticalAlign=top;spacingLeft=4;spacingRight=4;overflow=hidden;rotatable=0;points=[[0,0.5],[1,0.5]];portConstraint=eastwest;" vertex="1" parent="LLzRUw8gEmpdKAAqa6rB-67">
          <mxGeometry y="26" width="160" height="34" as="geometry" />
        </mxCell>
        <mxCell id="LLzRUw8gEmpdKAAqa6rB-71" value="" style="line;html=1;strokeWidth=1;align=left;verticalAlign=middle;spacingTop=-1;spacingLeft=3;spacingRight=3;rotatable=0;labelPosition=right;points=[];portConstraint=eastwest;" vertex="1" parent="LLzRUw8gEmpdKAAqa6rB-67">
          <mxGeometry y="60" width="160" height="8" as="geometry" />
        </mxCell>
        <mxCell id="LLzRUw8gEmpdKAAqa6rB-72" value="+ __init__()&#xa;+ signup()&#xa;+ login()&#xa;+ logout()&#xa;+ getAllUserPasswords()&#xa;+ insertPassword&#xa;" style="text;align=left;verticalAlign=top;spacingLeft=4;spacingRight=4;overflow=hidden;rotatable=0;points=[[0,0.5],[1,0.5]];portConstraint=eastwest;" vertex="1" parent="LLzRUw8gEmpdKAAqa6rB-67">
          <mxGeometry y="68" width="160" height="102" as="geometry" />
        </mxCell>
        <mxCell id="LLzRUw8gEmpdKAAqa6rB-73" value="Password" style="swimlane;fontStyle=0;align=center;verticalAlign=top;childLayout=stackLayout;horizontal=1;startSize=26;horizontalStack=0;resizeParent=1;resizeLast=0;collapsible=1;marginBottom=0;rounded=0;shadow=0;strokeWidth=1;" vertex="1" parent="WIyWlLk6GJQsqaUBKTNV-1">
          <mxGeometry x="-620" y="630" width="160" height="140" as="geometry">
            <mxRectangle x="550" y="140" width="160" height="26" as="alternateBounds" />
          </mxGeometry>
        </mxCell>
        <mxCell id="LLzRUw8gEmpdKAAqa6rB-76" value="+ username&#xa;+ url&#xa;+ owner" style="text;align=left;verticalAlign=top;spacingLeft=4;spacingRight=4;overflow=hidden;rotatable=0;points=[[0,0.5],[1,0.5]];portConstraint=eastwest;rounded=0;shadow=0;html=0;" vertex="1" parent="LLzRUw8gEmpdKAAqa6rB-73">
          <mxGeometry y="26" width="160" height="62" as="geometry" />
        </mxCell>
        <mxCell id="LLzRUw8gEmpdKAAqa6rB-77" value="" style="line;html=1;strokeWidth=1;align=left;verticalAlign=middle;spacingTop=-1;spacingLeft=3;spacingRight=3;rotatable=0;labelPosition=right;points=[];portConstraint=eastwest;" vertex="1" parent="LLzRUw8gEmpdKAAqa6rB-73">
          <mxGeometry y="88" width="160" height="8" as="geometry" />
        </mxCell>
        <mxCell id="LLzRUw8gEmpdKAAqa6rB-80" value="+ __init__()&#xa;+ randomPass()" style="text;align=left;verticalAlign=top;spacingLeft=4;spacingRight=4;overflow=hidden;rotatable=0;points=[[0,0.5],[1,0.5]];portConstraint=eastwest;" vertex="1" parent="LLzRUw8gEmpdKAAqa6rB-73">
          <mxGeometry y="96" width="160" height="44" as="geometry" />
        </mxCell>
        <mxCell id="LLzRUw8gEmpdKAAqa6rB-82" value="User" style="swimlane;fontStyle=0;align=center;verticalAlign=top;childLayout=stackLayout;horizontal=1;startSize=26;horizontalStack=0;resizeParent=1;resizeLast=0;collapsible=1;marginBottom=0;rounded=0;shadow=0;strokeWidth=1;" vertex="1" parent="WIyWlLk6GJQsqaUBKTNV-1">
          <mxGeometry x="-440" y="440" width="160" height="140" as="geometry">
            <mxRectangle x="550" y="140" width="160" height="26" as="alternateBounds" />
          </mxGeometry>
        </mxCell>
        <mxCell id="LLzRUw8gEmpdKAAqa6rB-83" value="+ username&#xa;+ email&#xa;+ owner" style="text;align=left;verticalAlign=top;spacingLeft=4;spacingRight=4;overflow=hidden;rotatable=0;points=[[0,0.5],[1,0.5]];portConstraint=eastwest;rounded=0;shadow=0;html=0;" vertex="1" parent="LLzRUw8gEmpdKAAqa6rB-82">
          <mxGeometry y="26" width="160" height="62" as="geometry" />
        </mxCell>
        <mxCell id="LLzRUw8gEmpdKAAqa6rB-84" value="" style="line;html=1;strokeWidth=1;align=left;verticalAlign=middle;spacingTop=-1;spacingLeft=3;spacingRight=3;rotatable=0;labelPosition=right;points=[];portConstraint=eastwest;" vertex="1" parent="LLzRUw8gEmpdKAAqa6rB-82">
          <mxGeometry y="88" width="160" height="8" as="geometry" />
        </mxCell>
        <mxCell id="LLzRUw8gEmpdKAAqa6rB-85" value="+ __init__()" style="text;align=left;verticalAlign=top;spacingLeft=4;spacingRight=4;overflow=hidden;rotatable=0;points=[[0,0.5],[1,0.5]];portConstraint=eastwest;" vertex="1" parent="LLzRUw8gEmpdKAAqa6rB-82">
          <mxGeometry y="96" width="160" height="24" as="geometry" />
        </mxCell>
      </root>
    </mxGraphModel>
  </diagram>
</mxfile>
